<svg width="596" height="492" viewBox="0 0 596 492" fill="none" xmlns="http://www.w3.org/2000/svg">
<path d="M289.82 477.65L32.78 310.452C24.5999 305.401 17.582 297.086 25.5535 291.658L283.532 128.018C287.406 125.378 293.277 123.656 297.21 126.165L567.005 298.48C575.185 303.712 576.66 318.324 568.495 323.556L323.703 477.388C318.563 480.669 312.735 482.419 306.793 482.465C300.851 482.511 295.001 480.852 289.82 477.65Z" fill="#9F9A9A"/>
<path opacity="0.32" d="M480.212 299.464C460.604 312.043 446.598 320.505 416.44 339.447C439.267 354.716 459.218 365.917 461.781 367.59L527.341 326.59C522.021 323.588 504.618 312.748 480.212 299.464Z" fill="url(#paint0_linear)"/>
<path opacity="0.32" d="M224.99 335.331C201.359 350.501 184.477 360.685 148.136 383.514C175.641 401.915 199.69 415.428 202.789 417.429L281.759 368.082C275.426 364.408 254.462 351.337 224.99 335.331Z" fill="url(#paint1_linear)"/>
<path opacity="0.32" d="M80.8623 318.078C93.125 309.091 105.596 300.432 117.993 291.69L100.381 277.537L32.1691 308.861C40.4088 313.617 51.5391 322.522 63.2505 331.592C69.0764 327.016 74.9023 322.44 80.8623 318.078Z" fill="url(#paint2_linear)"/>
<path d="M124.683 241.506C124.582 241.043 124.394 240.607 124.132 240.227C123.651 239.582 123.077 239.028 122.433 238.587C113.776 232.142 101.782 230.387 92.6333 236.668C90.5473 238.112 87.4332 241.375 88.6699 244.458C89.3851 246.246 91.5605 247.296 93.1399 248.017C98.1624 250.226 103.411 251.752 108.77 252.56C110.707 252.921 112.674 253.282 114.626 253.478C115.976 253.622 117.337 253.389 118.585 252.801C119.832 252.214 120.925 251.29 121.763 250.116C123.119 248.165 125.294 244.36 124.683 241.506Z" fill="#754C24"/>
<path d="M88.4166 243.048C88.4166 243.048 96.3136 250.92 109.962 249.772C123.61 248.624 124.668 241.572 124.668 241.572C124.668 241.572 121.137 291.362 119.274 292.215C117.412 293.068 110.439 296.774 107.071 297.053C103.704 297.332 93.0654 292.642 92.7972 291.346C92.529 290.05 88.4166 243.048 88.4166 243.048Z" fill="#FF8F6F"/>
<path d="M90.89 170.56C90.4728 169.625 89.1765 170.445 89.6086 171.38C98.9509 192.11 100.769 215.447 102.452 238.112C102.527 239.145 104.017 239.161 103.942 238.112C102.259 215.07 100.381 191.486 90.89 170.56Z" fill="#007F68"/>
<path d="M89.7129 170.691C89.7129 170.691 92.3204 181.45 89.6235 186.829C86.9266 192.208 84.7065 193.274 87.9249 199.949C91.1433 206.624 99.7555 207.526 100.322 212.642C100.888 217.759 96.2093 179.826 89.7129 170.691Z" fill="#007F68"/>
<path d="M119.587 190.109C112.392 206.671 108.337 224.672 107.667 243.015C107.667 244.294 109.44 244.278 109.485 243.015C110.117 225.021 114.066 207.355 121.092 191.093C121.658 189.961 120.094 188.944 119.587 190.109Z" fill="#007F68"/>
<path d="M120.869 195.34C120.869 194.258 120.645 192.06 120.75 190.24L119.707 190.962C116.16 200.457 110.856 222.761 109.277 229.584C111.437 224.467 120.273 223.762 122.865 216.464C124.009 213.366 124.063 209.91 123.014 206.771C121.736 203.116 121.011 199.254 120.869 195.34V195.34Z" fill="#007F68"/>
<path opacity="0.32" d="M319.739 380.677C343.758 366.442 400.601 334.97 424.441 320.407L287.242 225.926L188.247 299.907C213.368 314.372 284.977 357.012 319.739 380.677Z" fill="url(#paint3_linear)"/>
<path d="M203.951 221.4C204.056 256.381 204.234 287.869 204.234 287.869C204.234 287.869 204.905 290.723 209.688 288.394V219.301C207.78 220.006 205.873 220.678 203.951 221.4Z" fill="#5B434D"/>
<path d="M336.844 306.418C336.949 341.399 337.127 372.887 337.127 372.887C337.127 372.887 337.798 375.74 342.581 373.412V304.384C340.674 305.04 338.766 305.762 336.844 306.418Z" fill="#5B434D"/>
<path d="M418.69 253.413C418.794 288.394 418.973 319.882 418.973 319.882C418.973 319.882 419.644 322.736 424.427 320.407V251.379C422.534 252.068 420.627 252.757 418.69 253.413Z" fill="#5B434D"/>
<path d="M202.834 219.301V225.254L339.973 312.584L424.307 251.625L424.441 244.967" fill="#A5DD73"/>
<path opacity="0.76" d="M202.834 219.301V225.254L339.973 312.584L424.307 251.625L424.441 244.967" fill="#6DB720"/>
<path d="M202.834 219.301L291.071 163.902L424.441 244.967L339.496 306.614L202.834 219.301Z" fill="#A5DD73"/>
<path d="M325.282 190.47L306.702 200.31C306 200.68 305.404 201.253 304.977 201.968C304.55 202.683 304.308 203.513 304.277 204.368C304.247 205.223 304.429 206.072 304.803 206.821C305.178 207.571 305.731 208.195 306.404 208.624L350.463 236.914C351.415 237.525 352.545 237.707 353.617 237.423C354.688 237.139 355.619 236.41 356.214 235.389L366.913 217.07" fill="#56403D"/>
<path d="M418.69 138.039L266.904 41.82C266.152 41.3289 265.296 41.0663 264.422 41.0592C263.548 41.0521 262.688 41.3006 261.93 41.7795C261.172 42.2583 260.544 42.9502 260.108 43.7844C259.673 44.6185 259.447 45.565 259.454 46.5268V148.748C259.456 149.483 259.633 150.205 259.967 150.841C260.302 151.477 260.783 152.005 261.361 152.372L422.862 254.987C423.141 255.167 423.459 255.262 423.782 255.262C424.106 255.263 424.423 255.169 424.703 254.991C424.983 254.813 425.215 254.556 425.376 254.247C425.537 253.939 425.621 253.588 425.618 253.232V151.421C425.628 148.718 424.993 146.06 423.778 143.712C422.562 141.364 420.808 139.407 418.69 138.039V138.039Z" fill="#68E1FD"/>
<path d="M269.541 50.84L413.266 141.86C414.802 142.832 416.077 144.232 416.964 145.919C417.851 147.606 418.317 149.521 418.317 151.47V224.778C418.319 225.482 418.153 226.173 417.834 226.783C417.516 227.393 417.057 227.9 416.504 228.252C415.951 228.605 415.324 228.791 414.684 228.791C414.045 228.792 413.418 228.607 412.864 228.255L266.293 135.694C265.745 135.347 265.29 134.848 264.973 134.246C264.657 133.644 264.49 132.961 264.49 132.266V54.12C264.483 53.4654 264.633 52.8204 264.925 52.25C265.218 51.6797 265.641 51.2043 266.153 50.8716C266.666 50.5389 267.249 50.3609 267.843 50.3553C268.438 50.3498 269.024 50.5169 269.541 50.84V50.84Z" fill="#200A52"/>
<path d="M331.546 188.822C332.395 188.643 333.082 188.489 333.08 188.481C333.078 188.472 332.389 188.61 331.541 188.79C330.692 188.97 330.005 189.123 330.007 189.132C330.009 189.141 330.698 189.002 331.546 188.822Z" fill="#AB643C"/>
<path d="M407.411 146.009C408.275 146.009 408.975 145.172 408.975 144.14C408.975 143.107 408.275 142.27 407.411 142.27C406.547 142.27 405.846 143.107 405.846 144.14C405.846 145.172 406.547 146.009 407.411 146.009Z" fill="#659FE4"/>
<path d="M402.419 143.27C403.283 143.27 403.984 142.433 403.984 141.401C403.984 140.368 403.283 139.531 402.419 139.531C401.555 139.531 400.855 140.368 400.855 141.401C400.855 142.433 401.555 143.27 402.419 143.27Z" fill="#C5E9FF"/>
<path d="M272.551 71.094L360.684 126.214" stroke="#00A99D" stroke-width="4" stroke-miterlimit="10"/>
<path d="M272.864 85.5096L287.138 94.4312" stroke="#D4145A" stroke-width="4" stroke-miterlimit="10"/>
<path d="M291.355 97.4488L370.682 145.452" stroke="#29ABE2" stroke-width="4" stroke-miterlimit="10"/>
<path d="M272.551 98.6624L303.006 117.145" stroke="#F7931E" stroke-width="4" stroke-miterlimit="10"/>
<path d="M308.057 120.655L374.854 159.982" stroke="#00A99D" stroke-width="4" stroke-miterlimit="10"/>
<path d="M471.704 132.25V202.77C471.707 204.16 471.374 205.527 470.74 206.73C470.105 207.933 469.192 208.929 468.093 209.616C466.995 210.303 465.75 210.657 464.487 210.641C463.223 210.625 461.986 210.241 460.902 209.526L399.946 169.51C398.882 168.814 398.002 167.824 397.39 166.64C396.779 165.455 396.458 164.116 396.459 162.754V93.48C396.458 92.0996 396.787 90.7432 397.414 89.5475C398.041 88.3517 398.942 87.3588 400.029 86.6688C401.115 85.9787 402.347 85.6159 403.601 85.6168C404.855 85.6177 406.087 85.9824 407.172 86.674L468.128 125.411C469.219 126.102 470.125 127.099 470.753 128.3C471.381 129.501 471.709 130.864 471.704 132.25V132.25Z" fill="#A5DD73"/>
<path d="M428.196 124.279L408.439 140.269L426.155 167.641" stroke="#006837" stroke-width="4" stroke-miterlimit="10"/>
<path d="M445.674 135.825L460.216 167.083L439.773 177.579" stroke="#006837" stroke-width="4" stroke-miterlimit="10"/>
<path d="M273.817 200.441L241.797 220.58C241.463 220.793 241.186 221.1 240.993 221.468C240.8 221.836 240.699 222.254 240.699 222.679C240.699 223.104 240.8 223.522 240.993 223.89C241.186 224.259 241.463 224.565 241.797 224.778L330.78 281.08C331.859 281.763 333.082 282.123 334.326 282.123C335.571 282.123 336.794 281.763 337.872 281.08L367.836 262.039C368.186 261.818 368.477 261.499 368.679 261.114C368.881 260.73 368.987 260.294 368.987 259.85C368.987 259.406 368.881 258.97 368.679 258.585C368.477 258.201 368.186 257.882 367.836 257.66L277.84 200.441C277.23 200.047 276.536 199.84 275.829 199.84C275.122 199.84 274.427 200.047 273.817 200.441V200.441Z" fill="#200A52"/>
<path d="M322.198 232.552L313.064 238.522L319.843 242.851L329.022 236.914L322.198 232.552Z" fill="white"/>
<path d="M312.185 226.14L303.051 232.109L311.648 237.603L320.827 231.666L312.185 226.14Z" fill="white"/>
<path d="M275.799 202.884L266.516 208.756L274.771 214.036L283.949 208.1L275.799 202.884Z" fill="white"/>
<path d="M295.363 215.398L286.229 221.4L293.008 225.73L302.187 219.793L295.363 215.398Z" fill="white"/>
<path d="M285.35 208.985L276.216 214.955L284.799 220.449C285.812 219.809 291.563 216.07 293.977 214.512L285.35 208.985Z" fill="white"/>
<path d="M330.408 237.8L321.274 243.77L327.77 247.919L336.934 241.982L330.408 237.8Z" fill="white"/>
<path d="M303.573 220.646L294.439 226.615L301.621 231.207L310.799 225.27L303.573 220.646Z" fill="white"/>
<path d="M338.334 242.851L329.201 248.821L337.798 254.315L346.976 248.378L338.334 242.851Z" fill="white"/>
<path d="M348.347 249.264L339.198 255.217L354.62 265.073L363.903 259.202L348.347 249.264Z" fill="white"/>
<path d="M265.339 210.494L256.056 216.365L268.066 224.04L277.244 218.104L265.339 210.494Z" fill="white"/>
<path d="M288.643 225.385L279.509 231.355L286.289 235.684L295.467 229.748L288.643 225.385Z" fill="white"/>
<path d="M305.45 236.16L296.316 242.13L304.914 247.624L314.092 241.687L305.45 236.16Z" fill="white"/>
<path d="M296.853 230.633L287.719 236.603L294.901 241.195L304.079 235.258L296.853 230.633Z" fill="white"/>
<path d="M315.478 242.54L306.344 248.509L313.123 252.839L322.287 246.902L315.478 242.54Z" fill="white"/>
<path d="M323.688 247.788L314.554 253.757L321.05 257.906L330.214 251.97L323.688 247.788Z" fill="white"/>
<path d="M278.63 218.989L269.496 224.959L278.079 230.453L287.257 224.516L278.63 218.989Z" fill="white"/>
<path d="M331.6 252.855L322.466 258.825L331.063 264.319L340.227 258.382L331.6 252.855Z" fill="white"/>
<path d="M332.479 265.221L344.145 272.683L353.443 266.812L341.612 259.251L332.479 265.221Z" fill="white"/>
<path d="M325.639 264.188L318.845 268.648L326.727 273.667L333.626 269.304L325.639 264.188Z" fill="white"/>
<path d="M328.366 274.716L335.071 278.98L341.985 274.634L335.146 270.272L328.366 274.716Z" fill="white"/>
<path d="M253.881 218.317L246.759 222.679L254.835 227.812L261.823 223.401L253.881 218.317Z" fill="white"/>
<path d="M263.328 224.368L256.459 228.862L265.086 234.356L272.059 229.944L263.328 224.368Z" fill="white"/>
<path d="M273.579 230.912L266.725 235.406L317.206 267.599L324.12 263.22L273.579 230.912Z" fill="white"/>
<path d="M506.138 331.362C521.633 331.362 534.195 324.526 534.195 316.094C534.195 307.661 521.633 300.825 506.138 300.825C490.643 300.825 478.081 307.661 478.081 316.094C478.081 324.526 490.643 331.362 506.138 331.362Z" fill="#68E1FD"/>
<path d="M534.21 275.422V316.946C534.21 316.946 513.35 338.266 478.081 317.291V275.422" fill="#68E1FD"/>
<path opacity="0.21" d="M512.307 315.684C504.559 322.244 495.201 325.36 485.606 326.475C492 329.879 499.037 331.565 506.138 331.395C521.038 331.395 533.211 325.064 534.105 317.061L534.195 316.979V275.422H533.673C528.95 290.28 523.973 305.712 512.307 315.684Z" fill="#200A52"/>
<path d="M482.283 290.28C482.283 290.28 477.634 282.457 473.254 287C468.873 291.543 472.703 307.172 485.561 308.681V314.88C485.561 314.88 469.425 312.469 467.234 296.512C465.044 280.555 475.444 278.095 480.644 282.49" fill="#68E1FD"/>
<path d="M506.138 290.854C521.633 290.854 534.195 284.018 534.195 275.586C534.195 267.153 521.633 260.317 506.138 260.317C490.643 260.317 478.081 267.153 478.081 275.586C478.081 284.018 490.643 290.854 506.138 290.854Z" fill="#663535"/>
<path d="M242.08 275.52C235.167 270.206 227.031 267.32 218.24 269.419C208.883 271.682 200.778 278.16 191.242 279.751C189.752 279.997 183.717 279.571 182.793 280.538C156.256 308.189 230.473 305.22 230.473 305.22C237.67 298.66 244.449 292.346 251.601 285.786C249.426 280.538 245.85 278.439 242.08 275.52Z" fill="#F8997C"/>
<path d="M207.11 315.667L204.473 399.078C204.368 402.243 208.838 402.243 208.943 399.078L211.58 315.667C211.729 312.502 207.274 312.518 207.11 315.667Z" fill="#F8997C"/>
<path d="M262.791 360.292C249.282 345.739 236.369 330.553 224.051 314.732C222.174 312.322 219.03 315.815 220.893 318.209C233.19 334.019 246.103 349.205 259.632 363.768C261.689 365.982 264.862 362.44 262.791 360.292Z" fill="#F8997C"/>
<path d="M191.674 307.959C181.184 329.749 171.305 351.873 162.038 374.33C160.86 377.184 164.705 379.693 165.897 376.806C175.164 354.349 185.043 332.226 195.533 310.436C196.874 307.648 193.03 305.155 191.674 307.959Z" fill="#F8997C"/>
<path d="M243.928 219.76C244.837 219.514 252.481 217.349 254.358 216.66C256.235 215.972 262.046 211.002 265.205 211.74C268.364 212.478 274.726 217.087 275.024 218.628C275.322 220.17 273.534 222.04 272.864 222.712C272.193 223.384 267.589 221.531 265.801 221.22C264.013 220.908 261.167 225.566 259.483 226.386C257.8 227.206 246.923 229.354 246.923 229.354" fill="#FCBF81"/>
<path d="M264.475 240.194C265.384 239.948 273.028 237.784 274.905 237.095C276.782 236.406 282.593 231.437 285.752 232.175C288.911 232.913 295.273 237.521 295.571 239.063C295.869 240.604 294.081 242.474 293.411 243.146C292.74 243.819 288.136 241.966 286.348 241.654C284.56 241.342 281.714 246 280.031 246.82C278.347 247.64 267.47 249.788 267.47 249.788" fill="#FCBF81"/>
<path d="M261.51 346.188C262.896 344.548 263.804 342.908 263.328 341.186C262.478 338.119 258.694 336.872 256.101 337.036C253.509 337.2 250.827 338.676 248.204 339.496C245.462 340.58 242.536 340.977 239.637 340.661C239.17 340.585 238.745 340.323 238.445 339.923C237.641 339.727 236.898 339.303 236.289 338.693C235.68 338.083 235.226 337.308 234.973 336.446L226.391 333.068C226.391 333.068 224.2 353.026 224.275 354.388C224.916 365.162 239.532 359.012 239.532 359.012C239.532 359.012 240.054 354.092 240.188 353.486C240.322 352.879 245.925 354.748 248.234 354.355C249.296 354.028 250.303 353.513 251.214 352.83C252.942 351.78 254.641 350.665 256.325 349.55C258.008 348.434 259.767 347.336 261.51 346.188Z" fill="#56403D"/>
<path d="M229.46 272.519C226.242 272.863 223.023 273.322 219.82 273.831C221.151 296.496 222.641 319.144 224.29 341.776C232.634 345.532 236.016 343.793 241.186 337.971C242.17 316.372 243.883 293.691 243.839 271.912C239.071 272.142 234.273 272.371 229.46 272.519Z" fill="#34323D"/>
<path d="M194.788 266.303C194.788 266.303 193.402 291.116 204.726 296.643C216.05 302.17 239.279 299.415 250.707 292.035C256.616 288.074 262.816 284.667 269.243 281.85C269.243 281.85 272.223 270.994 265.056 266.303C257.889 261.613 242.185 255.807 228.208 266.303" fill="#34323D"/>
<path d="M252.525 229.157C253.732 224.09 253.032 215.726 253.032 215.726C253.032 215.726 238.892 218.382 232.932 217.366C226.972 216.349 217.227 202.606 217.227 202.606L218.553 229.83C229.847 232.437 241.544 232.995 252.525 229.157Z" fill="#BA3E00"/>
<path d="M287.659 361.735C289.045 360.095 289.954 358.455 289.477 356.733C288.628 353.666 284.843 352.42 282.251 352.584C279.658 352.748 276.976 354.224 274.354 355.044C271.612 356.127 268.685 356.525 265.786 356.208C265.32 356.133 264.895 355.87 264.594 355.47C263.79 355.274 263.047 354.85 262.438 354.24C261.829 353.63 261.376 352.856 261.123 351.993L252.54 348.615C252.54 348.615 250.35 368.574 250.424 369.935C251.065 380.71 265.682 374.56 265.682 374.56C265.682 374.56 266.203 369.64 266.338 369.033C266.472 368.426 272.074 370.296 274.383 369.902C275.446 369.576 276.452 369.06 277.363 368.377C279.092 367.327 280.791 366.212 282.474 365.097C284.158 363.982 285.931 362.883 287.659 361.735Z" fill="#56403D"/>
<path d="M254.641 266.91C251.661 265.368 248.592 265.532 245.045 265.549C245.537 273.536 245.269 276.406 245.716 284.376L245.835 286.492C247.206 310.108 248.815 333.707 250.454 357.307C258.798 361.062 262.18 359.324 267.351 353.502C268.498 328.361 270.658 301.826 269.824 276.799C265.011 271.551 260.75 270.059 254.641 266.91Z" fill="#34323D"/>
<path d="M194.594 261.17C194.594 261.777 194.698 263.827 194.788 266.303C199.481 273.109 205.218 277.094 214.158 276.799C221.444 276.57 227.568 273.06 233.23 268.73C232.514 254.216 230.384 229.37 227.061 212.101C226.778 210.642 223.336 209.658 222.323 209.051C219.954 207.624 221.34 205.164 219.015 203.639C215.644 201.478 212.133 199.592 208.511 197.997H208.421C202.625 197.899 192.627 202.819 192.031 211.363C191.122 224.483 192.434 232.437 193.357 245.541C193.7 250.822 194.192 256.037 194.594 261.17Z" fill="#E55600"/>
<path d="M214.784 173.118C215.543 173.332 221.98 189.633 219.462 199.539C216.944 209.444 201.657 199.26 197.812 191.716C193.968 184.172 200.33 168.92 214.784 173.118Z" fill="#FCBF81"/>
<path d="M214.56 175.398C214.56 175.398 214.56 180.777 210.284 182.516C206.007 184.254 202.446 185.418 202.685 187.6C202.923 189.781 210.418 187.288 210.448 192.274C210.45 195.632 210.039 198.975 209.226 202.212C208.749 204.656 195.92 197.161 191.689 184.402C187.457 171.642 198.051 168.248 198.572 168.166C199.094 168.084 200.062 164.607 205.233 163.36C210.403 162.114 211.893 164.344 211.893 164.344C213.073 163.562 214.453 163.226 215.823 163.389C217.193 163.552 218.476 164.204 219.477 165.246C224.26 169.428 223.053 177.071 217.629 180.17L214.56 175.398Z" fill="#34323D"/>
<path d="M273.564 236.16C266.904 237.685 253.374 240.112 248.592 237.8C244.881 236.012 232.5 206.788 219.045 203.655L217.227 225.959C217.227 225.959 236.254 252.527 245.045 255.266C251.437 257.25 268.647 254.594 276.201 251.707C276.528 246.363 275.621 241.014 273.564 236.16V236.16Z" fill="#E55600"/>
<path d="M231.412 243.032C230.443 241.654 219.417 227.911 219.417 227.911L232.664 257.775L231.412 243.032Z" fill="#34323D"/>
<path d="M250.558 285.36C246.42 291.71 240.555 296.448 233.811 298.89C224.364 302.055 210.626 300.53 205.665 289.69C196.635 269.911 205.113 245.147 195.577 225.91C194.476 223.478 192.921 221.33 191.013 219.606C189.105 217.882 186.888 216.621 184.507 215.906C178.323 214.414 174.077 219.53 171.842 225.549C167.819 236.34 167.968 249.772 168.161 261.268C168.171 270.554 168.784 279.827 169.994 289.017C169.994 289.017 175.775 327.574 220.833 317.225C228.636 315.668 236.13 312.615 242.974 308.205C246.481 305.979 249.55 303.008 252.004 299.464C254.79 295.003 252.928 289.772 250.558 285.36Z" fill="#68E1FD"/>
<defs>
<linearGradient id="paint0_linear" x1="463.435" y1="341.612" x2="498.073" y2="312.555" gradientUnits="userSpaceOnUse">
<stop stop-color="#E75D48"/>
<stop offset="1" stop-color="#502019"/>
</linearGradient>
<linearGradient id="paint1_linear" x1="18517.3" y1="19664.6" x2="20474.5" y2="16723.9" gradientUnits="userSpaceOnUse">
<stop stop-color="#E75D48"/>
<stop offset="1" stop-color="#502019"/>
</linearGradient>
<linearGradient id="paint2_linear" x1="3877.08" y1="10418.2" x2="5142.14" y2="8799.02" gradientUnits="userSpaceOnUse">
<stop stop-color="#E75D48"/>
<stop offset="1" stop-color="#502019"/>
</linearGradient>
<linearGradient id="paint3_linear" x1="45048.7" y1="32725.1" x2="48665.1" y2="25365" gradientUnits="userSpaceOnUse">
<stop stop-color="#E75D48"/>
<stop offset="1" stop-color="#502019"/>
</linearGradient>
</defs>
</svg>
