<svg width="1440" height="80" viewBox="0 0 1440 80" fill="none" xmlns="http://www.w3.org/2000/svg">
<path fill-rule="evenodd" clip-rule="evenodd" d="M1440 32.1029H1400.4C1359.6 32.1029 1280.4 32.1029 1200 37.4534C1119.6 42.8039 1040.4 53.5048 960 62.4223C879.6 71.3398 800.4 78.4738 720 76.6903C639.6 74.9068 560.4 64.2058 480 64.2058C399.6 64.2058 320.4 74.9068 240 78.4738C159.6 82.0408 80.3999 78.4738 39.5999 76.6903L-5.72205e-05 74.9068V3.40795e-06H39.5999C80.3999 3.40795e-06 159.6 3.40795e-06 240 3.40795e-06C320.4 3.40795e-06 399.6 3.40795e-06 480 3.40795e-06C560.4 3.40795e-06 639.6 3.40795e-06 720 3.40795e-06C800.4 3.40795e-06 879.6 3.40795e-06 960 3.40795e-06C1040.4 3.40795e-06 1119.6 3.40795e-06 1200 3.40795e-06C1280.4 3.40795e-06 1359.6 3.40795e-06 1400.4 3.40795e-06H1440V32.1029Z" fill="url(#paint0_linear)"/>
<defs>
<linearGradient id="paint0_linear" x1="1200" y1="40" x2="0" y2="40" gradientUnits="userSpaceOnUse">
<stop stop-color="#16222A"/>
<stop offset="1" stop-color="#3A6073"/>
</linearGradient>
</defs>
</svg>
